version 1
nodes
0 "root" -1
end
skeleton
time 0
0  0.000000 0.000000 0.000000  0.000000 -0.000000 0.000000
end
triangles
default
0  0.000000 0.000000 -1.000000  0.098019 0.000000 -0.995185  1.000000 0.500000 1 0 1.000000
0  0.195090 2.000000 -0.980785  0.098018 0.000000 -0.995185  0.968750 1.000000 1 0 1.000000
0  0.195090 0.000000 -0.980785  0.098019 0.000000 -0.995185  0.968750 0.500000 1 0 1.000000
default
0  0.195090 0.000000 -0.980785  0.290281 0.000000 -0.956941  0.968750 0.500000 1 0 1.000000
0  0.382683 2.000000 -0.923880  0.290281 0.000000 -0.956941  0.937500 1.000000 1 0 1.000000
0  0.382683 0.000000 -0.923880  0.290281 0.000000 -0.956941  0.937500 0.500000 1 0 1.000000
default
0  0.382683 0.000000 -0.923880  0.471397 0.000000 -0.881921  0.937500 0.500000 1 0 1.000000
0  0.555570 2.000000 -0.831470  0.471396 0.000000 -0.881922  0.906250 1.000000 1 0 1.000000
0  0.555570 0.000000 -0.831470  0.471397 0.000000 -0.881921  0.906250 0.500000 1 0 1.000000
default
0  0.555570 0.000000 -0.831470  0.634392 0.000000 -0.773011  0.906250 0.500000 1 0 1.000000
0  0.707107 2.000000 -0.707107  0.634392 0.000000 -0.773011  0.875000 1.000000 1 0 1.000000
0  0.707107 0.000000 -0.707107  0.634392 0.000000 -0.773011  0.875000 0.500000 1 0 1.000000
default
0  0.707107 0.000000 -0.707107  0.773011 0.000000 -0.634392  0.875000 0.500000 1 0 1.000000
0  0.831470 2.000000 -0.555570  0.773011 0.000000 -0.634392  0.843750 1.000000 1 0 1.000000
0  0.831470 0.000000 -0.555570  0.773011 0.000000 -0.634392  0.843750 0.500000 1 0 1.000000
default
0  0.831470 0.000000 -0.555570  0.881921 0.000000 -0.471396  0.843750 0.500000 1 0 1.000000
0  0.923880 2.000000 -0.382683  0.881921 0.000000 -0.471397  0.812500 1.000000 1 0 1.000000
0  0.923880 0.000000 -0.382683  0.881921 0.000000 -0.471396  0.812500 0.500000 1 0 1.000000
default
0  0.923880 0.000000 -0.382683  0.956941 -0.000000 -0.290281  0.812500 0.500000 1 0 1.000000
0  0.980785 2.000000 -0.195090  0.956941 0.000000 -0.290282  0.781250 1.000000 1 0 1.000000
0  0.980785 0.000000 -0.195090  0.956941 -0.000000 -0.290281  0.781250 0.500000 1 0 1.000000
default
0  0.980785 0.000000 -0.195090  0.995185 0.000000 -0.098019  0.781250 0.500000 1 0 1.000000
0  1.000000 2.000000 0.000000  0.995185 0.000000 -0.098019  0.750000 1.000000 1 0 1.000000
0  1.000000 0.000000 0.000000  0.995185 0.000000 -0.098019  0.750000 0.500000 1 0 1.000000
default
0  1.000000 0.000000 0.000000  0.995185 -0.000000 0.098019  0.750000 0.500000 1 0 1.000000
0  0.980785 2.000000 0.195090  0.995185 -0.000000 0.098019  0.718750 1.000000 1 0 1.000000
0  0.980785 -0.000000 0.195090  0.995185 -0.000000 0.098019  0.718750 0.500000 1 0 1.000000
default
0  0.980785 -0.000000 0.195090  0.956941 -0.000000 0.290281  0.718750 0.500000 1 0 1.000000
0  0.923880 2.000000 0.382683  0.956941 -0.000000 0.290281  0.687500 1.000000 1 0 1.000000
0  0.923880 -0.000000 0.382683  0.956941 -0.000000 0.290281  0.687500 0.500000 1 0 1.000000
default
0  0.923880 -0.000000 0.382683  0.881921 -0.000000 0.471396  0.687500 0.500000 1 0 1.000000
0  0.831470 2.000000 0.555570  0.881921 -0.000000 0.471397  0.656250 1.000000 1 0 1.000000
0  0.831470 -0.000000 0.555570  0.881921 -0.000000 0.471396  0.656250 0.500000 1 0 1.000000
default
0  0.831470 -0.000000 0.555570  0.773011 -0.000000 0.634393  0.656250 0.500000 1 0 1.000000
0  0.707107 2.000000 0.707107  0.773011 -0.000000 0.634393  0.625000 1.000000 1 0 1.000000
0  0.707107 -0.000000 0.707107  0.773011 -0.000000 0.634393  0.625000 0.500000 1 0 1.000000
default
0  0.707107 -0.000000 0.707107  0.634393 -0.000000 0.773011  0.625000 0.500000 1 0 1.000000
0  0.555570 2.000000 0.831470  0.634393 -0.000000 0.773011  0.593750 1.000000 1 0 1.000000
0  0.555570 -0.000000 0.831470  0.634393 -0.000000 0.773010  0.593750 0.500000 1 0 1.000000
default
0  0.555570 -0.000000 0.831470  0.471397 -0.000000 0.881921  0.593750 0.500000 1 0 1.000000
0  0.382683 2.000000 0.923880  0.471396 -0.000000 0.881922  0.562500 1.000000 1 0 1.000000
0  0.382683 -0.000000 0.923880  0.471397 -0.000000 0.881921  0.562500 0.500000 1 0 1.000000
default
0  0.382683 -0.000000 0.923880  0.290282 -0.000000 0.956941  0.562500 0.500000 1 0 1.000000
0  0.195090 2.000000 0.980785  0.290281 -0.000000 0.956941  0.531250 1.000000 1 0 1.000000
0  0.195090 -0.000000 0.980785  0.290281 -0.000000 0.956941  0.531250 0.500000 1 0 1.000000
default
0  0.195090 -0.000000 0.980785  0.098018 -0.000000 0.995185  0.531250 0.500000 1 0 1.000000
0  0.000000 2.000000 1.000000  0.098018 -0.000000 0.995185  0.500000 1.000000 1 0 1.000000
0  0.000000 -0.000000 1.000000  0.098018 -0.000000 0.995185  0.500000 0.500000 1 0 1.000000
default
0  0.000000 -0.000000 1.000000  -0.098018 -0.000000 0.995185  0.500000 0.500000 1 0 1.000000
0  -0.195090 2.000000 0.980785  -0.098018 -0.000000 0.995185  0.468750 1.000000 1 0 1.000000
0  -0.195090 -0.000000 0.980785  -0.098018 -0.000000 0.995185  0.468750 0.500000 1 0 1.000000
default
0  -0.195090 -0.000000 0.980785  -0.290282 -0.000000 0.956941  0.468750 0.500000 1 0 1.000000
0  -0.382683 2.000000 0.923880  -0.290281 -0.000000 0.956941  0.437500 1.000000 1 0 1.000000
0  -0.382683 -0.000000 0.923880  -0.290281 -0.000000 0.956941  0.437500 0.500000 1 0 1.000000
default
0  -0.382683 -0.000000 0.923880  -0.471396 -0.000000 0.881922  0.437500 0.500000 1 0 1.000000
0  -0.555570 2.000000 0.831470  -0.471397 -0.000000 0.881921  0.406250 1.000000 1 0 1.000000
0  -0.555570 -0.000000 0.831470  -0.471396 -0.000000 0.881922  0.406250 0.500000 1 0 1.000000
default
0  -0.555570 -0.000000 0.831470  -0.634393 -0.000000 0.773011  0.406250 0.500000 1 0 1.000000
0  -0.707107 2.000000 0.707107  -0.634393 -0.000000 0.773011  0.375000 1.000000 1 0 1.000000
0  -0.707107 -0.000000 0.707107  -0.634393 -0.000000 0.773011  0.375000 0.500000 1 0 1.000000
default
0  -0.707107 -0.000000 0.707107  -0.773013 -0.000000 0.634390  0.375000 0.500000 1 0 1.000000
0  -0.831469 2.000000 0.555570  -0.773013 -0.000000 0.634390  0.343750 1.000000 1 0 1.000000
0  -0.831469 -0.000000 0.555570  -0.773013 -0.000000 0.634390  0.343750 0.500000 1 0 1.000000
default
0  -0.831469 -0.000000 0.555570  -0.881918 -0.000000 0.471403  0.343750 0.500000 1 0 1.000000
0  -0.923880 2.000000 0.382684  -0.881918 -0.000000 0.471402  0.312500 1.000000 1 0 1.000000
0  -0.923880 -0.000000 0.382684  -0.881918 -0.000000 0.471403  0.312500 0.500000 1 0 1.000000
default
0  -0.923880 -0.000000 0.382684  -0.956942 -0.000000 0.290280  0.312500 0.500000 1 0 1.000000
0  -0.980785 2.000000 0.195090  -0.956942 -0.000000 0.290280  0.281250 1.000000 1 0 1.000000
0  -0.980785 -0.000000 0.195090  -0.956942 -0.000000 0.290280  0.281250 0.500000 1 0 1.000000
default
0  -0.980785 -0.000000 0.195090  -0.995185 -0.000000 0.098019  0.281250 0.500000 1 0 1.000000
0  -1.000000 2.000000 0.000000  -0.995185 -0.000000 0.098019  0.250000 1.000000 1 0 1.000000
0  -1.000000 0.000000 0.000000  -0.995185 -0.000000 0.098019  0.250000 0.500000 1 0 1.000000
default
0  -1.000000 0.000000 0.000000  -0.995185 0.000000 -0.098019  0.250000 0.500000 1 0 1.000000
0  -0.980785 2.000000 -0.195090  -0.995185 0.000000 -0.098019  0.218750 1.000000 1 0 1.000000
0  -0.980785 0.000000 -0.195090  -0.995185 0.000000 -0.098019  0.218750 0.500000 1 0 1.000000
default
0  -0.980785 0.000000 -0.195090  -0.956940 -0.000000 -0.290284  0.218750 0.500000 1 0 1.000000
0  -0.923879 2.000000 -0.382684  -0.956940 0.000000 -0.290285  0.187500 1.000000 1 0 1.000000
0  -0.923879 0.000000 -0.382684  -0.956940 -0.000000 -0.290284  0.187500 0.500000 1 0 1.000000
default
0  -0.923879 0.000000 -0.382684  -0.881922 0.000000 -0.471395  0.187500 0.500000 1 0 1.000000
0  -0.831470 2.000000 -0.555570  -0.881922 0.000000 -0.471395  0.156250 1.000000 1 0 1.000000
0  -0.831470 0.000000 -0.555570  -0.881922 0.000000 -0.471395  0.156250 0.500000 1 0 1.000000
default
0  -0.831470 0.000000 -0.555570  -0.773011 0.000000 -0.634392  0.156250 0.500000 1 0 1.000000
0  -0.707107 2.000000 -0.707107  -0.773011 0.000000 -0.634392  0.125000 1.000000 1 0 1.000000
0  -0.707107 0.000000 -0.707107  -0.773011 0.000000 -0.634392  0.125000 0.500000 1 0 1.000000
default
0  -0.707107 0.000000 -0.707107  -0.634392 0.000000 -0.773011  0.125000 0.500000 1 0 1.000000
0  -0.555570 2.000000 -0.831470  -0.634392 0.000000 -0.773011  0.093750 1.000000 1 0 1.000000
0  -0.555570 0.000000 -0.831470  -0.634392 0.000000 -0.773011  0.093750 0.500000 1 0 1.000000
default
0  -0.555570 0.000000 -0.831470  -0.471396 0.000000 -0.881922  0.093750 0.500000 1 0 1.000000
0  -0.382683 2.000000 -0.923880  -0.471397 0.000000 -0.881921  0.062500 1.000000 1 0 1.000000
0  -0.382683 0.000000 -0.923880  -0.471396 0.000000 -0.881922  0.062500 0.500000 1 0 1.000000
default
0  -0.923879 2.000000 -0.382684  0.000000 1.000000 -0.000000  0.028269 0.341844 1 0 1.000000
0  -0.382683 2.000000 0.923880  -0.000000 1.000000 0.000000  0.158156 0.028269 1 0 1.000000
0  0.923880 2.000000 0.382683  -0.000000 1.000000 0.000000  0.471731 0.158156 1 0 1.000000
default
0  -0.382683 0.000000 -0.923880  -0.290281 0.000000 -0.956941  0.062500 0.500000 1 0 1.000000
0  -0.195090 2.000000 -0.980785  -0.290281 0.000000 -0.956941  0.031250 1.000000 1 0 1.000000
0  -0.195090 0.000000 -0.980785  -0.290281 0.000000 -0.956941  0.031250 0.500000 1 0 1.000000
default
0  -0.195090 0.000000 -0.980785  -0.098018 0.000000 -0.995185  0.031250 0.500000 1 0 1.000000
0  0.000000 2.000000 -1.000000  -0.098019 0.000000 -0.995185  0.000000 1.000000 1 0 1.000000
0  0.000000 0.000000 -1.000000  -0.098018 0.000000 -0.995185  0.000000 0.500000 1 0 1.000000
default
0  0.980785 0.000000 -0.195090  -0.000000 -1.000000 -0.000000  0.985388 0.296822 1 0 1.000000
0  0.195090 -0.000000 0.980785  0.000000 -1.000000 -0.000000  0.796822 0.014612 1 0 1.000000
0  -0.980785 -0.000000 0.195090  -0.000000 -1.000000 -0.000000  0.514612 0.203178 1 0 1.000000
default
0  0.000000 0.000000 -1.000000  0.098019 0.000000 -0.995185  1.000000 0.500000 1 0 1.000000
0  0.000000 2.000000 -1.000000  0.098018 0.000000 -0.995185  1.000000 1.000000 1 0 1.000000
0  0.195090 2.000000 -0.980785  0.098018 0.000000 -0.995185  0.968750 1.000000 1 0 1.000000
default
0  0.195090 0.000000 -0.980785  0.290281 0.000000 -0.956941  0.968750 0.500000 1 0 1.000000
0  0.195090 2.000000 -0.980785  0.290281 0.000000 -0.956941  0.968750 1.000000 1 0 1.000000
0  0.382683 2.000000 -0.923880  0.290281 0.000000 -0.956941  0.937500 1.000000 1 0 1.000000
default
0  0.382683 0.000000 -0.923880  0.471397 0.000000 -0.881921  0.937500 0.500000 1 0 1.000000
0  0.382683 2.000000 -0.923880  0.471396 0.000000 -0.881922  0.937500 1.000000 1 0 1.000000
0  0.555570 2.000000 -0.831470  0.471396 0.000000 -0.881922  0.906250 1.000000 1 0 1.000000
default
0  0.555570 0.000000 -0.831470  0.634392 0.000000 -0.773011  0.906250 0.500000 1 0 1.000000
0  0.555570 2.000000 -0.831470  0.634392 0.000000 -0.773011  0.906250 1.000000 1 0 1.000000
0  0.707107 2.000000 -0.707107  0.634392 0.000000 -0.773011  0.875000 1.000000 1 0 1.000000
default
0  0.707107 0.000000 -0.707107  0.773011 0.000000 -0.634392  0.875000 0.500000 1 0 1.000000
0  0.707107 2.000000 -0.707107  0.773011 0.000000 -0.634392  0.875000 1.000000 1 0 1.000000
0  0.831470 2.000000 -0.555570  0.773011 0.000000 -0.634392  0.843750 1.000000 1 0 1.000000
default
0  0.831470 0.000000 -0.555570  0.881921 0.000000 -0.471396  0.843750 0.500000 1 0 1.000000
0  0.831470 2.000000 -0.555570  0.881921 0.000000 -0.471397  0.843750 1.000000 1 0 1.000000
0  0.923880 2.000000 -0.382683  0.881921 0.000000 -0.471397  0.812500 1.000000 1 0 1.000000
default
0  0.923880 0.000000 -0.382683  0.956941 -0.000000 -0.290281  0.812500 0.500000 1 0 1.000000
0  0.923880 2.000000 -0.382683  0.956941 0.000000 -0.290282  0.812500 1.000000 1 0 1.000000
0  0.980785 2.000000 -0.195090  0.956941 0.000000 -0.290282  0.781250 1.000000 1 0 1.000000
default
0  0.980785 0.000000 -0.195090  0.995185 0.000000 -0.098019  0.781250 0.500000 1 0 1.000000
0  0.980785 2.000000 -0.195090  0.995185 0.000000 -0.098019  0.781250 1.000000 1 0 1.000000
0  1.000000 2.000000 0.000000  0.995185 0.000000 -0.098019  0.750000 1.000000 1 0 1.000000
default
0  1.000000 0.000000 0.000000  0.995185 -0.000000 0.098019  0.750000 0.500000 1 0 1.000000
0  1.000000 2.000000 0.000000  0.995185 0.000000 0.098019  0.750000 1.000000 1 0 1.000000
0  0.980785 2.000000 0.195090  0.995185 -0.000000 0.098019  0.718750 1.000000 1 0 1.000000
default
0  0.980785 -0.000000 0.195090  0.956941 -0.000000 0.290281  0.718750 0.500000 1 0 1.000000
0  0.980785 2.000000 0.195090  0.956941 0.000000 0.290281  0.718750 1.000000 1 0 1.000000
0  0.923880 2.000000 0.382683  0.956941 -0.000000 0.290281  0.687500 1.000000 1 0 1.000000
default
0  0.923880 -0.000000 0.382683  0.881921 -0.000000 0.471396  0.687500 0.500000 1 0 1.000000
0  0.923880 2.000000 0.382683  0.881921 0.000000 0.471397  0.687500 1.000000 1 0 1.000000
0  0.831470 2.000000 0.555570  0.881921 -0.000000 0.471397  0.656250 1.000000 1 0 1.000000
default
0  0.831470 -0.000000 0.555570  0.773011 -0.000000 0.634393  0.656250 0.500000 1 0 1.000000
0  0.831470 2.000000 0.555570  0.773011 -0.000000 0.634393  0.656250 1.000000 1 0 1.000000
0  0.707107 2.000000 0.707107  0.773011 -0.000000 0.634393  0.625000 1.000000 1 0 1.000000
default
0  0.707107 -0.000000 0.707107  0.634393 -0.000000 0.773011  0.625000 0.500000 1 0 1.000000
0  0.707107 2.000000 0.707107  0.634393 -0.000000 0.773011  0.625000 1.000000 1 0 1.000000
0  0.555570 2.000000 0.831470  0.634393 -0.000000 0.773011  0.593750 1.000000 1 0 1.000000
default
0  0.555570 -0.000000 0.831470  0.471397 -0.000000 0.881921  0.593750 0.500000 1 0 1.000000
0  0.555570 2.000000 0.831470  0.471396 -0.000000 0.881922  0.593750 1.000000 1 0 1.000000
0  0.382683 2.000000 0.923880  0.471396 -0.000000 0.881922  0.562500 1.000000 1 0 1.000000
default
0  0.382683 -0.000000 0.923880  0.290282 -0.000000 0.956941  0.562500 0.500000 1 0 1.000000
0  0.382683 2.000000 0.923880  0.290281 -0.000000 0.956941  0.562500 1.000000 1 0 1.000000
0  0.195090 2.000000 0.980785  0.290281 -0.000000 0.956941  0.531250 1.000000 1 0 1.000000
default
0  0.195090 -0.000000 0.980785  0.098018 -0.000000 0.995185  0.531250 0.500000 1 0 1.000000
0  0.195090 2.000000 0.980785  0.098018 -0.000000 0.995185  0.531250 1.000000 1 0 1.000000
0  0.000000 2.000000 1.000000  0.098018 -0.000000 0.995185  0.500000 1.000000 1 0 1.000000
default
0  0.000000 -0.000000 1.000000  -0.098018 -0.000000 0.995185  0.500000 0.500000 1 0 1.000000
0  0.000000 2.000000 1.000000  -0.098018 -0.000000 0.995185  0.500000 1.000000 1 0 1.000000
0  -0.195090 2.000000 0.980785  -0.098018 -0.000000 0.995185  0.468750 1.000000 1 0 1.000000
default
0  -0.195090 -0.000000 0.980785  -0.290282 -0.000000 0.956941  0.468750 0.500000 1 0 1.000000
0  -0.195090 2.000000 0.980785  -0.290281 -0.000000 0.956941  0.468750 1.000000 1 0 1.000000
0  -0.382683 2.000000 0.923880  -0.290281 -0.000000 0.956941  0.437500 1.000000 1 0 1.000000
default
0  -0.382683 -0.000000 0.923880  -0.471396 -0.000000 0.881922  0.437500 0.500000 1 0 1.000000
0  -0.382683 2.000000 0.923880  -0.471397 -0.000000 0.881921  0.437500 1.000000 1 0 1.000000
0  -0.555570 2.000000 0.831470  -0.471397 -0.000000 0.881921  0.406250 1.000000 1 0 1.000000
default
0  -0.555570 -0.000000 0.831470  -0.634393 -0.000000 0.773011  0.406250 0.500000 1 0 1.000000
0  -0.555570 2.000000 0.831470  -0.634393 -0.000000 0.773011  0.406250 1.000000 1 0 1.000000
0  -0.707107 2.000000 0.707107  -0.634393 -0.000000 0.773011  0.375000 1.000000 1 0 1.000000
default
0  -0.707107 -0.000000 0.707107  -0.773013 -0.000000 0.634390  0.375000 0.500000 1 0 1.000000
0  -0.707107 2.000000 0.707107  -0.773013 -0.000000 0.634390  0.375000 1.000000 1 0 1.000000
0  -0.831469 2.000000 0.555570  -0.773013 -0.000000 0.634390  0.343750 1.000000 1 0 1.000000
default
0  -0.831469 -0.000000 0.555570  -0.881918 -0.000000 0.471403  0.343750 0.500000 1 0 1.000000
0  -0.831469 2.000000 0.555570  -0.881918 0.000000 0.471402  0.343750 1.000000 1 0 1.000000
0  -0.923880 2.000000 0.382684  -0.881918 -0.000000 0.471402  0.312500 1.000000 1 0 1.000000
default
0  -0.923880 -0.000000 0.382684  -0.956942 -0.000000 0.290280  0.312500 0.500000 1 0 1.000000
0  -0.923880 2.000000 0.382684  -0.956942 0.000000 0.290280  0.312500 1.000000 1 0 1.000000
0  -0.980785 2.000000 0.195090  -0.956942 -0.000000 0.290280  0.281250 1.000000 1 0 1.000000
default
0  -0.980785 -0.000000 0.195090  -0.995185 -0.000000 0.098019  0.281250 0.500000 1 0 1.000000
0  -0.980785 2.000000 0.195090  -0.995185 0.000000 0.098019  0.281250 1.000000 1 0 1.000000
0  -1.000000 2.000000 0.000000  -0.995185 -0.000000 0.098019  0.250000 1.000000 1 0 1.000000
default
0  -1.000000 0.000000 0.000000  -0.995185 0.000000 -0.098019  0.250000 0.500000 1 0 1.000000
0  -1.000000 2.000000 0.000000  -0.995185 0.000000 -0.098019  0.250000 1.000000 1 0 1.000000
0  -0.980785 2.000000 -0.195090  -0.995185 0.000000 -0.098019  0.218750 1.000000 1 0 1.000000
default
0  -0.980785 0.000000 -0.195090  -0.956940 -0.000000 -0.290284  0.218750 0.500000 1 0 1.000000
0  -0.980785 2.000000 -0.195090  -0.956940 0.000000 -0.290285  0.218750 1.000000 1 0 1.000000
0  -0.923879 2.000000 -0.382684  -0.956940 0.000000 -0.290285  0.187500 1.000000 1 0 1.000000
default
0  -0.923879 0.000000 -0.382684  -0.881922 0.000000 -0.471395  0.187500 0.500000 1 0 1.000000
0  -0.923879 2.000000 -0.382684  -0.881922 0.000000 -0.471395  0.187500 1.000000 1 0 1.000000
0  -0.831470 2.000000 -0.555570  -0.881922 0.000000 -0.471395  0.156250 1.000000 1 0 1.000000
default
0  -0.831470 0.000000 -0.555570  -0.773011 0.000000 -0.634392  0.156250 0.500000 1 0 1.000000
0  -0.831470 2.000000 -0.555570  -0.773011 0.000000 -0.634392  0.156250 1.000000 1 0 1.000000
0  -0.707107 2.000000 -0.707107  -0.773011 0.000000 -0.634392  0.125000 1.000000 1 0 1.000000
default
0  -0.707107 0.000000 -0.707107  -0.634392 0.000000 -0.773011  0.125000 0.500000 1 0 1.000000
0  -0.707107 2.000000 -0.707107  -0.634392 0.000000 -0.773011  0.125000 1.000000 1 0 1.000000
0  -0.555570 2.000000 -0.831470  -0.634392 0.000000 -0.773011  0.093750 1.000000 1 0 1.000000
default
0  -0.555570 0.000000 -0.831470  -0.471396 0.000000 -0.881922  0.093750 0.500000 1 0 1.000000
0  -0.555570 2.000000 -0.831470  -0.471397 0.000000 -0.881921  0.093750 1.000000 1 0 1.000000
0  -0.382683 2.000000 -0.923880  -0.471397 0.000000 -0.881921  0.062500 1.000000 1 0 1.000000
default
0  0.382683 2.000000 -0.923880  0.000000 1.000000 0.000000  0.341844 0.471731 1 0 1.000000
0  0.195090 2.000000 -0.980785  0.000000 1.000000 0.000000  0.296822 0.485388 1 0 1.000000
0  -0.382683 2.000000 -0.923880  0.000000 1.000000 -0.000000  0.158156 0.471731 1 0 1.000000
default
0  0.195090 2.000000 -0.980785  0.000000 1.000000 0.000000  0.296822 0.485388 1 0 1.000000
0  0.000000 2.000000 -1.000000  0.000000 1.000000 0.000005  0.250000 0.490000 1 0 1.000000
0  -0.382683 2.000000 -0.923880  0.000000 1.000000 -0.000000  0.158156 0.471731 1 0 1.000000
default
0  0.000000 2.000000 -1.000000  0.000000 1.000000 0.000005  0.250000 0.490000 1 0 1.000000
0  -0.195090 2.000000 -0.980785  0.000000 1.000000 0.000000  0.203178 0.485388 1 0 1.000000
0  -0.382683 2.000000 -0.923880  0.000000 1.000000 -0.000000  0.158156 0.471731 1 0 1.000000
default
0  -0.382683 2.000000 -0.923880  0.000000 1.000000 -0.000000  0.158156 0.471731 1 0 1.000000
0  -0.555570 2.000000 -0.831470  0.000000 1.000000 0.000000  0.116663 0.449553 1 0 1.000000
0  -0.707107 2.000000 -0.707107  0.000000 1.000000 0.000000  0.080294 0.419706 1 0 1.000000
default
0  -0.707107 2.000000 -0.707107  0.000000 1.000000 0.000000  0.080294 0.419706 1 0 1.000000
0  -0.831470 2.000000 -0.555570  0.000000 1.000000 0.000000  0.050447 0.383337 1 0 1.000000
0  -0.382683 2.000000 -0.923880  0.000000 1.000000 -0.000000  0.158156 0.471731 1 0 1.000000
default
0  -0.831470 2.000000 -0.555570  0.000000 1.000000 0.000000  0.050447 0.383337 1 0 1.000000
0  -0.923879 2.000000 -0.382684  0.000000 1.000000 -0.000000  0.028269 0.341844 1 0 1.000000
0  -0.382683 2.000000 -0.923880  0.000000 1.000000 -0.000000  0.158156 0.471731 1 0 1.000000
default
0  -0.923879 2.000000 -0.382684  0.000000 1.000000 -0.000000  0.028269 0.341844 1 0 1.000000
0  -0.980785 2.000000 -0.195090  0.000000 1.000000 0.000000  0.014612 0.296822 1 0 1.000000
0  -1.000000 2.000000 0.000000  0.000000 1.000000 0.000000  0.010000 0.250000 1 0 1.000000
default
0  -1.000000 2.000000 0.000000  0.000000 1.000000 0.000000  0.010000 0.250000 1 0 1.000000
0  -0.980785 2.000000 0.195090  0.000000 1.000000 0.000000  0.014612 0.203178 1 0 1.000000
0  -0.923880 2.000000 0.382684  0.000000 1.000000 -0.000000  0.028269 0.158156 1 0 1.000000
default
0  -0.923880 2.000000 0.382684  0.000000 1.000000 -0.000000  0.028269 0.158156 1 0 1.000000
0  -0.831469 2.000000 0.555570  0.000000 1.000000 0.000000  0.050447 0.116663 1 0 1.000000
0  -0.707107 2.000000 0.707107  0.000001 1.000000 -0.000002  0.080294 0.080294 1 0 1.000000
default
0  -0.707107 2.000000 0.707107  0.000001 1.000000 -0.000002  0.080294 0.080294 1 0 1.000000
0  -0.555570 2.000000 0.831470  -0.000001 1.000000 0.000008  0.116663 0.050447 1 0 1.000000
0  -0.382683 2.000000 0.923880  -0.000000 1.000000 0.000000  0.158156 0.028269 1 0 1.000000
default
0  -0.382683 2.000000 0.923880  -0.000000 1.000000 0.000000  0.158156 0.028269 1 0 1.000000
0  -0.195090 2.000000 0.980785  0.000000 1.000000 0.000000  0.203178 0.014612 1 0 1.000000
0  0.000000 2.000000 1.000000  0.000000 1.000000 0.000000  0.250000 0.010000 1 0 1.000000
default
0  0.000000 2.000000 1.000000  0.000000 1.000000 0.000000  0.250000 0.010000 1 0 1.000000
0  0.195090 2.000000 0.980785  0.000000 1.000000 0.000000  0.296822 0.014612 1 0 1.000000
0  0.382683 2.000000 0.923880  0.000000 1.000000 0.000000  0.341844 0.028269 1 0 1.000000
default
0  0.382683 2.000000 0.923880  0.000000 1.000000 0.000000  0.341844 0.028269 1 0 1.000000
0  0.555570 2.000000 0.831470  0.000001 1.000000 0.000008  0.383337 0.050447 1 0 1.000000
0  0.707107 2.000000 0.707107  -0.000000 1.000000 0.000002  0.419706 0.080294 1 0 1.000000
default
0  0.707107 2.000000 0.707107  -0.000000 1.000000 0.000002  0.419706 0.080294 1 0 1.000000
0  0.831470 2.000000 0.555570  0.000000 1.000000 0.000000  0.449553 0.116663 1 0 1.000000
0  0.923880 2.000000 0.382683  -0.000000 1.000000 0.000000  0.471731 0.158156 1 0 1.000000
default
0  0.923880 2.000000 0.382683  -0.000000 1.000000 0.000000  0.471731 0.158156 1 0 1.000000
0  0.980785 2.000000 0.195090  0.000000 1.000000 0.000000  0.485388 0.203178 1 0 1.000000
0  1.000000 2.000000 0.000000  0.000000 1.000000 0.000000  0.490000 0.250000 1 0 1.000000
default
0  1.000000 2.000000 0.000000  0.000000 1.000000 0.000000  0.490000 0.250000 1 0 1.000000
0  0.980785 2.000000 -0.195090  0.000000 1.000000 0.000000  0.485388 0.296822 1 0 1.000000
0  0.923880 2.000000 -0.382683  0.000000 1.000000 0.000000  0.471731 0.341844 1 0 1.000000
default
0  0.923880 2.000000 -0.382683  0.000000 1.000000 0.000000  0.471731 0.341844 1 0 1.000000
0  0.831470 2.000000 -0.555570  0.000000 1.000000 0.000000  0.449553 0.383337 1 0 1.000000
0  0.707107 2.000000 -0.707107  0.000000 1.000000 0.000002  0.419706 0.419706 1 0 1.000000
default
0  0.707107 2.000000 -0.707107  0.000000 1.000000 0.000002  0.419706 0.419706 1 0 1.000000
0  0.555570 2.000000 -0.831470  0.000000 1.000000 0.000000  0.383337 0.449553 1 0 1.000000
0  0.382683 2.000000 -0.923880  0.000000 1.000000 0.000000  0.341844 0.471731 1 0 1.000000
default
0  -0.923879 2.000000 -0.382684  0.000000 1.000000 -0.000000  0.028269 0.341844 1 0 1.000000
0  -1.000000 2.000000 0.000000  0.000000 1.000000 0.000000  0.010000 0.250000 1 0 1.000000
0  -0.382683 2.000000 0.923880  -0.000000 1.000000 0.000000  0.158156 0.028269 1 0 1.000000
default
0  -1.000000 2.000000 0.000000  0.000000 1.000000 0.000000  0.010000 0.250000 1 0 1.000000
0  -0.923880 2.000000 0.382684  0.000000 1.000000 -0.000000  0.028269 0.158156 1 0 1.000000
0  -0.382683 2.000000 0.923880  -0.000000 1.000000 0.000000  0.158156 0.028269 1 0 1.000000
default
0  -0.923880 2.000000 0.382684  0.000000 1.000000 -0.000000  0.028269 0.158156 1 0 1.000000
0  -0.707107 2.000000 0.707107  0.000001 1.000000 -0.000002  0.080294 0.080294 1 0 1.000000
0  -0.382683 2.000000 0.923880  -0.000000 1.000000 0.000000  0.158156 0.028269 1 0 1.000000
default
0  -0.382683 2.000000 0.923880  -0.000000 1.000000 0.000000  0.158156 0.028269 1 0 1.000000
0  0.000000 2.000000 1.000000  0.000000 1.000000 0.000000  0.250000 0.010000 1 0 1.000000
0  0.382683 2.000000 0.923880  0.000000 1.000000 0.000000  0.341844 0.028269 1 0 1.000000
default
0  0.382683 2.000000 0.923880  0.000000 1.000000 0.000000  0.341844 0.028269 1 0 1.000000
0  0.707107 2.000000 0.707107  -0.000000 1.000000 0.000002  0.419706 0.080294 1 0 1.000000
0  -0.382683 2.000000 0.923880  -0.000000 1.000000 0.000000  0.158156 0.028269 1 0 1.000000
default
0  0.707107 2.000000 0.707107  -0.000000 1.000000 0.000002  0.419706 0.080294 1 0 1.000000
0  0.923880 2.000000 0.382683  -0.000000 1.000000 0.000000  0.471731 0.158156 1 0 1.000000
0  -0.382683 2.000000 0.923880  -0.000000 1.000000 0.000000  0.158156 0.028269 1 0 1.000000
default
0  0.923880 2.000000 0.382683  -0.000000 1.000000 0.000000  0.471731 0.158156 1 0 1.000000
0  1.000000 2.000000 0.000000  0.000000 1.000000 0.000000  0.490000 0.250000 1 0 1.000000
0  0.382683 2.000000 -0.923880  0.000000 1.000000 0.000000  0.341844 0.471731 1 0 1.000000
default
0  1.000000 2.000000 0.000000  0.000000 1.000000 0.000000  0.490000 0.250000 1 0 1.000000
0  0.923880 2.000000 -0.382683  0.000000 1.000000 0.000000  0.471731 0.341844 1 0 1.000000
0  0.382683 2.000000 -0.923880  0.000000 1.000000 0.000000  0.341844 0.471731 1 0 1.000000
default
0  0.923880 2.000000 -0.382683  0.000000 1.000000 0.000000  0.471731 0.341844 1 0 1.000000
0  0.707107 2.000000 -0.707107  0.000000 1.000000 0.000002  0.419706 0.419706 1 0 1.000000
0  0.382683 2.000000 -0.923880  0.000000 1.000000 0.000000  0.341844 0.471731 1 0 1.000000
default
0  0.382683 2.000000 -0.923880  0.000000 1.000000 0.000000  0.341844 0.471731 1 0 1.000000
0  -0.382683 2.000000 -0.923880  0.000000 1.000000 -0.000000  0.158156 0.471731 1 0 1.000000
0  -0.923879 2.000000 -0.382684  0.000000 1.000000 -0.000000  0.028269 0.341844 1 0 1.000000
default
0  0.382683 2.000000 -0.923880  0.000000 1.000000 0.000000  0.341844 0.471731 1 0 1.000000
0  -0.923879 2.000000 -0.382684  0.000000 1.000000 -0.000000  0.028269 0.341844 1 0 1.000000
0  0.923880 2.000000 0.382683  -0.000000 1.000000 0.000000  0.471731 0.158156 1 0 1.000000
default
0  -0.382683 0.000000 -0.923880  -0.290281 0.000000 -0.956941  0.062500 0.500000 1 0 1.000000
0  -0.382683 2.000000 -0.923880  -0.290281 0.000000 -0.956941  0.062500 1.000000 1 0 1.000000
0  -0.195090 2.000000 -0.980785  -0.290281 0.000000 -0.956941  0.031250 1.000000 1 0 1.000000
default
0  -0.195090 0.000000 -0.980785  -0.098018 0.000000 -0.995185  0.031250 0.500000 1 0 1.000000
0  -0.195090 2.000000 -0.980785  -0.098019 0.000000 -0.995184  0.031250 1.000000 1 0 1.000000
0  0.000000 2.000000 -1.000000  -0.098019 0.000000 -0.995185  0.000000 1.000000 1 0 1.000000
default
0  -0.195090 0.000000 -0.980785  0.000000 -1.000000 -0.000000  0.703178 0.485388 1 0 1.000000
0  0.000000 0.000000 -1.000000  0.000000 -1.000000 -0.000000  0.750000 0.490000 1 0 1.000000
0  0.195090 0.000000 -0.980785  -0.000000 -1.000000 -0.000000  0.796822 0.485388 1 0 1.000000
default
0  0.195090 0.000000 -0.980785  -0.000000 -1.000000 -0.000000  0.796822 0.485388 1 0 1.000000
0  0.382683 0.000000 -0.923880  0.000000 -1.000000 -0.000000  0.841844 0.471731 1 0 1.000000
0  0.555570 0.000000 -0.831470  -0.000000 -1.000000 -0.000000  0.883337 0.449553 1 0 1.000000
default
0  0.555570 0.000000 -0.831470  -0.000000 -1.000000 -0.000000  0.883337 0.449553 1 0 1.000000
0  0.707107 0.000000 -0.707107  -0.000000 -1.000000 -0.000000  0.919706 0.419706 1 0 1.000000
0  0.831470 0.000000 -0.555570  0.000000 -1.000000 -0.000000  0.949553 0.383337 1 0 1.000000
default
0  0.831470 0.000000 -0.555570  0.000000 -1.000000 -0.000000  0.949553 0.383337 1 0 1.000000
0  0.923880 0.000000 -0.382683  -0.000000 -1.000000 -0.000000  0.971731 0.341844 1 0 1.000000
0  0.980785 0.000000 -0.195090  -0.000000 -1.000000 -0.000000  0.985388 0.296822 1 0 1.000000
default
0  0.980785 0.000000 -0.195090  -0.000000 -1.000000 -0.000000  0.985388 0.296822 1 0 1.000000
0  1.000000 0.000000 0.000000  0.000000 -1.000000 -0.000000  0.990000 0.250000 1 0 1.000000
0  0.980785 -0.000000 0.195090  -0.000000 -1.000000 -0.000000  0.985388 0.203178 1 0 1.000000
default
0  0.980785 -0.000000 0.195090  -0.000000 -1.000000 -0.000000  0.985388 0.203178 1 0 1.000000
0  0.923880 -0.000000 0.382683  0.000000 -1.000000 -0.000000  0.971731 0.158156 1 0 1.000000
0  0.831470 -0.000000 0.555570  0.000000 -1.000000 -0.000000  0.949553 0.116663 1 0 1.000000
default
0  0.831470 -0.000000 0.555570  0.000000 -1.000000 -0.000000  0.949553 0.116663 1 0 1.000000
0  0.707107 -0.000000 0.707107  0.000000 -1.000000 -0.000000  0.919706 0.080294 1 0 1.000000
0  0.555570 -0.000000 0.831470  0.000000 -1.000000 -0.000000  0.883337 0.050447 1 0 1.000000
default
0  0.555570 -0.000000 0.831470  0.000000 -1.000000 -0.000000  0.883337 0.050447 1 0 1.000000
0  0.382683 -0.000000 0.923880  0.000000 -1.000000 -0.000000  0.841844 0.028269 1 0 1.000000
0  0.195090 -0.000000 0.980785  0.000000 -1.000000 -0.000000  0.796822 0.014612 1 0 1.000000
default
0  0.195090 -0.000000 0.980785  0.000000 -1.000000 -0.000000  0.796822 0.014612 1 0 1.000000
0  0.000000 -0.000000 1.000000  0.000000 -1.000000 -0.000000  0.750000 0.010000 1 0 1.000000
0  -0.195090 -0.000000 0.980785  -0.000000 -1.000000 -0.000000  0.703178 0.014612 1 0 1.000000
default
0  -0.195090 -0.000000 0.980785  -0.000000 -1.000000 -0.000000  0.703178 0.014612 1 0 1.000000
0  -0.382683 -0.000000 0.923880  0.000000 -1.000000 -0.000000  0.658156 0.028269 1 0 1.000000
0  -0.555570 -0.000000 0.831470  -0.000000 -1.000000 -0.000000  0.616663 0.050447 1 0 1.000000
default
0  -0.555570 -0.000000 0.831470  -0.000000 -1.000000 -0.000000  0.616663 0.050447 1 0 1.000000
0  -0.707107 -0.000000 0.707107  -0.000000 -1.000000 -0.000000  0.580294 0.080294 1 0 1.000000
0  -0.831469 -0.000000 0.555570  0.000000 -1.000000 -0.000000  0.550447 0.116663 1 0 1.000000
default
0  -0.831469 -0.000000 0.555570  0.000000 -1.000000 -0.000000  0.550447 0.116663 1 0 1.000000
0  -0.923880 -0.000000 0.382684  -0.000000 -1.000000 -0.000000  0.528269 0.158156 1 0 1.000000
0  -0.980785 -0.000000 0.195090  -0.000000 -1.000000 -0.000000  0.514612 0.203178 1 0 1.000000
default
0  -0.980785 -0.000000 0.195090  -0.000000 -1.000000 -0.000000  0.514612 0.203178 1 0 1.000000
0  -1.000000 0.000000 0.000000  0.000000 -1.000000 -0.000000  0.510000 0.250000 1 0 1.000000
0  -0.980785 0.000000 -0.195090  0.000000 -1.000000 -0.000000  0.514612 0.296822 1 0 1.000000
default
0  -0.980785 0.000000 -0.195090  0.000000 -1.000000 -0.000000  0.514612 0.296822 1 0 1.000000
0  -0.923879 0.000000 -0.382684  -0.000000 -1.000000 -0.000000  0.528269 0.341844 1 0 1.000000
0  -0.980785 -0.000000 0.195090  -0.000000 -1.000000 -0.000000  0.514612 0.203178 1 0 1.000000
default
0  -0.923879 0.000000 -0.382684  -0.000000 -1.000000 -0.000000  0.528269 0.341844 1 0 1.000000
0  -0.831470 0.000000 -0.555570  -0.000000 -1.000000 -0.000000  0.550447 0.383337 1 0 1.000000
0  -0.980785 -0.000000 0.195090  -0.000000 -1.000000 -0.000000  0.514612 0.203178 1 0 1.000000
default
0  -0.831470 0.000000 -0.555570  -0.000000 -1.000000 -0.000000  0.550447 0.383337 1 0 1.000000
0  -0.707107 0.000000 -0.707107  0.000000 -1.000000 -0.000000  0.580294 0.419706 1 0 1.000000
0  -0.195090 0.000000 -0.980785  0.000000 -1.000000 -0.000000  0.703178 0.485388 1 0 1.000000
default
0  -0.707107 0.000000 -0.707107  0.000000 -1.000000 -0.000000  0.580294 0.419706 1 0 1.000000
0  -0.555570 0.000000 -0.831470  0.000000 -1.000000 -0.000000  0.616663 0.449553 1 0 1.000000
0  -0.195090 0.000000 -0.980785  0.000000 -1.000000 -0.000000  0.703178 0.485388 1 0 1.000000
default
0  -0.555570 0.000000 -0.831470  0.000000 -1.000000 -0.000000  0.616663 0.449553 1 0 1.000000
0  -0.382683 0.000000 -0.923880  0.000000 -1.000000 -0.000000  0.658156 0.471731 1 0 1.000000
0  -0.195090 0.000000 -0.980785  0.000000 -1.000000 -0.000000  0.703178 0.485388 1 0 1.000000
default
0  -0.195090 0.000000 -0.980785  0.000000 -1.000000 -0.000000  0.703178 0.485388 1 0 1.000000
0  0.195090 0.000000 -0.980785  -0.000000 -1.000000 -0.000000  0.796822 0.485388 1 0 1.000000
0  0.980785 0.000000 -0.195090  -0.000000 -1.000000 -0.000000  0.985388 0.296822 1 0 1.000000
default
0  0.195090 0.000000 -0.980785  -0.000000 -1.000000 -0.000000  0.796822 0.485388 1 0 1.000000
0  0.555570 0.000000 -0.831470  -0.000000 -1.000000 -0.000000  0.883337 0.449553 1 0 1.000000
0  0.980785 0.000000 -0.195090  -0.000000 -1.000000 -0.000000  0.985388 0.296822 1 0 1.000000
default
0  0.555570 0.000000 -0.831470  -0.000000 -1.000000 -0.000000  0.883337 0.449553 1 0 1.000000
0  0.831470 0.000000 -0.555570  0.000000 -1.000000 -0.000000  0.949553 0.383337 1 0 1.000000
0  0.980785 0.000000 -0.195090  -0.000000 -1.000000 -0.000000  0.985388 0.296822 1 0 1.000000
default
0  0.980785 0.000000 -0.195090  -0.000000 -1.000000 -0.000000  0.985388 0.296822 1 0 1.000000
0  0.980785 -0.000000 0.195090  -0.000000 -1.000000 -0.000000  0.985388 0.203178 1 0 1.000000
0  0.831470 -0.000000 0.555570  0.000000 -1.000000 -0.000000  0.949553 0.116663 1 0 1.000000
default
0  0.831470 -0.000000 0.555570  0.000000 -1.000000 -0.000000  0.949553 0.116663 1 0 1.000000
0  0.555570 -0.000000 0.831470  0.000000 -1.000000 -0.000000  0.883337 0.050447 1 0 1.000000
0  0.980785 0.000000 -0.195090  -0.000000 -1.000000 -0.000000  0.985388 0.296822 1 0 1.000000
default
0  0.555570 -0.000000 0.831470  0.000000 -1.000000 -0.000000  0.883337 0.050447 1 0 1.000000
0  0.195090 -0.000000 0.980785  0.000000 -1.000000 -0.000000  0.796822 0.014612 1 0 1.000000
0  0.980785 0.000000 -0.195090  -0.000000 -1.000000 -0.000000  0.985388 0.296822 1 0 1.000000
default
0  0.195090 -0.000000 0.980785  0.000000 -1.000000 -0.000000  0.796822 0.014612 1 0 1.000000
0  -0.195090 -0.000000 0.980785  -0.000000 -1.000000 -0.000000  0.703178 0.014612 1 0 1.000000
0  -0.980785 -0.000000 0.195090  -0.000000 -1.000000 -0.000000  0.514612 0.203178 1 0 1.000000
default
0  -0.195090 -0.000000 0.980785  -0.000000 -1.000000 -0.000000  0.703178 0.014612 1 0 1.000000
0  -0.555570 -0.000000 0.831470  -0.000000 -1.000000 -0.000000  0.616663 0.050447 1 0 1.000000
0  -0.980785 -0.000000 0.195090  -0.000000 -1.000000 -0.000000  0.514612 0.203178 1 0 1.000000
default
0  -0.555570 -0.000000 0.831470  -0.000000 -1.000000 -0.000000  0.616663 0.050447 1 0 1.000000
0  -0.831469 -0.000000 0.555570  0.000000 -1.000000 -0.000000  0.550447 0.116663 1 0 1.000000
0  -0.980785 -0.000000 0.195090  -0.000000 -1.000000 -0.000000  0.514612 0.203178 1 0 1.000000
default
0  -0.980785 -0.000000 0.195090  -0.000000 -1.000000 -0.000000  0.514612 0.203178 1 0 1.000000
0  -0.831470 0.000000 -0.555570  -0.000000 -1.000000 -0.000000  0.550447 0.383337 1 0 1.000000
0  -0.195090 0.000000 -0.980785  0.000000 -1.000000 -0.000000  0.703178 0.485388 1 0 1.000000
default
0  -0.195090 0.000000 -0.980785  0.000000 -1.000000 -0.000000  0.703178 0.485388 1 0 1.000000
0  0.980785 0.000000 -0.195090  -0.000000 -1.000000 -0.000000  0.985388 0.296822 1 0 1.000000
0  -0.980785 -0.000000 0.195090  -0.000000 -1.000000 -0.000000  0.514612 0.203178 1 0 1.000000
end
